HIERARCHY
ROOT Hips
{
  OFFSET 0.0000 0.0000 0.0000
  CHANNELS 6 Xposition Yposition Zposition Zrotation Xrotation Yrotation
  JOINT LeftHip
  {
    OFFSET 5.5000 0.0000 0.0000
    CHANNELS 3 Zrotation Xrotation Yrotation
    JOINT LeftKnee
    {
      OFFSET -0.0000 -17.5000 -0.0000
      CHANNELS 3 Zrotation Xrotation Yrotation
      JOINT LeftAnkle
      {
        OFFSET 0.0000 -17.0000 -0.0000
        CHANNELS 3 Zrotation Xrotation Yrotation
        End Site
        {
            OFFSET -0.0000 -4.7000 -2.0000
        }
      }
    }
  }
  JOINT RightHip
  {
    OFFSET -5.5000 0.0000 0.0000
    CHANNELS 3 Zrotation Xrotation Yrotation
    JOINT RightKnee
    {
      OFFSET -0.0000 -17.5000 0.0000
      CHANNELS 3 Zrotation Xrotation Yrotation
      JOINT RightAnkle
      {
        OFFSET 0.0000 -17.0000 -0.0000
        CHANNELS 3 Zrotation Xrotation Yrotation
        End Site
        {
            OFFSET 0.0000 -4.7000 -2.0000
        }
      }
    }
  }
  JOINT Chest
  {
    OFFSET -0.0000 3.0000 -1.0000
    CHANNELS 3 Zrotation Xrotation Yrotation
    JOINT LeftCollar
    {
      OFFSET -0.0000 18.0000 1.0000
      CHANNELS 3 Zrotation Xrotation Yrotation
      JOINT LeftShoulder
      {
        OFFSET 6.5000 0.0000 0.0000
        CHANNELS 3 Zrotation Xrotation Yrotation
        JOINT LeftElbow
        {
          OFFSET 0.0000 -11.0000 -0.0000
          CHANNELS 3 Zrotation Xrotation Yrotation
          JOINT LeftWrist
          {
            OFFSET 0.0000 -10.5000 0.0000
            CHANNELS 3 Zrotation Xrotation Yrotation
            End Site
            {
                OFFSET 0.0000 -6.0000 0.0000
            }
          }
        }
      }
    }
    JOINT RightCollar
    {
      OFFSET -0.0000 18.0000 1.0000
      CHANNELS 3 Zrotation Xrotation Yrotation
      JOINT RightShoulder
      {
        OFFSET -6.5000 0.0000 0.0000
        CHANNELS 3 Zrotation Xrotation Yrotation
        JOINT RightElbow
        {
          OFFSET 0.0000 -11.0000 0.0000
          CHANNELS 3 Zrotation Xrotation Yrotation
          JOINT RightWrist
          {
            OFFSET 0.0000 -10.5000 -0.0000
            CHANNELS 3 Zrotation Xrotation Yrotation
            End Site
            {
                OFFSET 0.0000 -6.0000 -0.0000
            }
          }
        }
      }
    }
    JOINT Neck
    {
      OFFSET -0.0000 18.0000 1.0000
      CHANNELS 3 Zrotation Xrotation Yrotation
      JOINT Head
      {
        OFFSET 0.0000 3.0000 0.0000
        CHANNELS 3 Zrotation Xrotation Yrotation
        End Site
        {
            OFFSET 0.0000 7.0000 0.0000
        }
      }
    }
  }
}
MOTION
Frames:	27
Frame Time:	0.033333
-0.4960 39.4752 -0.1925 0.09 0.03 2.08 -1.02 -9.43 -0.32 0.00 23.55 0.01 0.90 -11.44 -0.06 2.12 -9.21 0.25 0.00 24.02 -0.10 -2.50 -10.94 -0.80 0.01 6.06 0.10 0.00 0.00 0.00 11.07 -11.43 -6.47 0.00 -10.00 0.95 -19.30 2.60 -22.31 0.00 0.00 0.00 -10.28 -10.06 2.99 0.00 -9.99 -0.95 13.68 0.80 0.95 0.00 0.00 0.00 -0.27 -8.92 0.04 
-0.4964 39.4757 -0.2043 0.09 0.03 2.08 -1.02 -9.45 -0.32 -0.00 23.54 0.01 0.90 -11.41 -0.06 2.12 -9.22 0.25 -0.00 24.00 -0.10 -2.50 -10.91 -0.80 0.01 6.06 0.10 0.00 0.00 0.00 11.08 -11.43 -6.47 0.00 -9.98 0.95 -19.31 2.57 -22.33 0.00 0.00 0.00 -10.28 -10.06 3.00 0.00 -10.03 -0.95 13.67 0.83 0.95 0.00 0.00 0.00 -0.26 -8.94 0.04 
-0.4973 39.4773 -0.2257 0.09 0.03 2.08 -1.02 -9.47 -0.32 0.00 23.51 0.01 0.90 -11.36 -0.06 2.12 -9.24 0.25 0.00 23.98 -0.09 -2.50 -10.86 -0.80 0.01 6.06 0.10 0.00 0.00 0.00 11.08 -11.48 -6.51 -0.00 -10.00 0.90 -19.32 2.60 -22.31 0.00 0.00 0.00 -10.27 -10.10 3.00 -0.00 -10.12 -0.96 13.67 0.92 0.93 0.00 0.00 0.00 -0.26 -8.97 0.04 
-0.5029 39.4806 -0.2631 0.09 0.03 2.08 -1.01 -9.51 -0.32 -0.00 23.46 -0.00 0.89 -11.27 -0.06 2.13 -9.28 0.24 -0.00 23.93 -0.09 -2.51 -10.77 -0.80 0.01 6.06 0.10 0.00 0.00 0.00 11.07 -11.53 -6.55 0.00 -9.99 0.87 -19.31 2.61 -22.35 0.00 0.00 0.00 -10.27 -10.15 3.04 0.00 -10.19 -0.92 13.68 0.97 0.85 0.00 0.00 0.00 -0.26 -9.00 0.08 
-0.5101 39.4854 -0.3049 0.09 0.03 2.08 -1.00 -9.56 -0.31 0.00 23.41 -0.00 0.88 -11.17 -0.06 2.13 -9.33 0.24 0.00 23.88 -0.08 -2.52 -10.67 -0.80 0.01 6.06 0.10 0.00 0.00 0.00 11.07 -11.54 -6.60 0.00 -9.98 0.86 -19.30 2.58 -22.41 0.00 0.00 0.00 -10.27 -10.16 3.09 0.00 -10.19 -0.89 13.70 0.93 0.80 0.00 0.00 0.00 -0.26 -9.00 0.12 
-0.5150 39.4894 -0.3331 0.09 0.03 2.08 -0.99 -9.59 -0.31 -0.00 23.38 -0.01 0.88 -11.11 -0.06 2.14 -9.37 0.24 -0.00 23.85 -0.08 -2.53 -10.61 -0.80 0.01 6.06 0.10 0.00 0.00 0.00 11.07 -11.54 -6.67 0.00 -10.01 0.82 -19.28 2.54 -22.47 0.00 0.00 0.00 -10.27 -10.16 3.13 -0.00 -10.18 -0.88 13.71 0.88 0.79 0.00 0.00 0.00 -0.26 -8.99 0.15 
-0.5150 39.4917 -0.3331 0.09 0.03 2.08 -0.99 -9.58 -0.31 0.00 23.37 -0.01 0.88 -11.10 -0.06 2.14 -9.36 0.24 0.00 23.84 -0.07 -2.53 -10.60 -0.80 0.01 6.06 0.10 0.00 0.00 0.00 11.07 -11.53 -6.82 0.00 -10.09 0.72 -19.35 2.52 -22.63 0.00 0.00 0.00 -10.28 -10.15 3.16 -0.00 -10.13 -0.88 13.71 0.82 0.79 0.00 0.00 0.00 -0.26 -8.97 0.17 
-0.5150 39.4921 -0.3331 0.09 0.03 2.08 -0.99 -9.58 -0.31 -0.00 23.36 -0.01 0.88 -11.10 -0.06 2.14 -9.35 0.23 0.00 23.83 -0.07 -2.53 -10.60 -0.80 0.01 6.06 0.10 0.00 0.00 0.00 11.07 -11.52 -7.01 -0.00 -10.21 0.64 -19.53 2.54 -22.95 0.00 0.00 0.00 -10.28 -10.15 3.18 0.00 -10.09 -0.89 13.68 0.78 0.82 0.00 0.00 0.00 -0.23 -8.95 0.19 
-0.5149 39.4926 -0.3331 0.09 0.03 2.08 -0.99 -9.58 -0.30 0.00 23.36 -0.01 0.88 -11.10 -0.06 2.14 -9.35 0.23 0.00 23.82 -0.07 -2.53 -10.60 -0.81 0.01 6.06 0.10 0.00 0.00 0.00 11.07 -11.52 -7.17 -0.00 -10.31 0.62 -19.76 2.59 -23.44 0.00 0.00 0.00 -10.28 -10.14 3.20 0.00 -10.06 -0.90 13.66 0.76 0.84 0.00 0.00 0.00 -0.19 -8.94 0.21 
-0.5147 39.4927 -0.3331 0.09 0.03 2.08 -0.99 -9.58 -0.30 -0.00 23.35 -0.02 0.88 -11.10 -0.06 2.14 -9.35 0.23 0.00 23.82 -0.06 -2.53 -10.59 -0.81 0.01 6.06 0.10 0.00 0.00 0.00 11.07 -11.56 -7.33 -0.00 -10.46 0.61 -20.01 2.73 -23.85 0.00 0.00 0.00 -10.28 -10.14 3.21 -0.00 -10.04 -0.91 13.62 0.76 0.86 0.00 0.00 0.00 -0.17 -8.93 0.22 
-0.5156 39.4934 -0.3565 0.08 0.03 2.08 -0.99 -9.61 -0.30 -0.00 23.34 -0.02 0.88 -11.05 -0.06 2.14 -9.38 0.23 0.00 23.80 -0.06 -2.53 -10.54 -0.81 0.01 6.06 0.10 0.00 0.00 0.00 11.06 -11.61 -7.46 0.00 -10.55 0.64 -20.23 2.83 -24.25 0.00 0.00 0.00 -10.28 -10.14 3.22 0.00 -10.02 -0.92 13.59 0.76 0.88 0.00 0.00 0.00 -0.15 -8.93 0.22 
-0.5168 39.4959 -0.3868 0.08 0.03 2.08 -0.99 -9.65 -0.30 -0.00 23.32 -0.02 0.88 -10.99 -0.06 2.14 -9.42 0.23 -0.00 23.77 -0.06 -2.53 -10.48 -0.81 0.01 6.06 0.10 0.00 0.00 0.00 11.06 -11.65 -7.55 0.00 -10.59 0.69 -20.44 2.92 -24.62 0.00 0.00 0.00 -10.28 -10.14 3.22 0.00 -10.01 -0.93 13.55 0.76 0.89 0.00 0.00 0.00 -0.14 -8.92 0.22 
-0.5274 39.4980 -0.4023 0.08 0.03 2.08 -0.97 -9.68 -0.30 -0.00 23.32 -0.02 0.86 -10.96 -0.06 2.16 -9.44 0.23 0.00 23.76 -0.05 -2.55 -10.44 -0.82 0.01 6.06 0.10 0.00 0.00 0.00 11.07 -11.68 -7.62 0.00 -10.61 0.75 -20.62 2.96 -24.94 0.00 0.00 0.00 -10.28 -10.14 3.23 0.00 -10.01 -0.93 13.51 0.76 0.90 0.00 0.00 0.00 -0.12 -8.98 0.23 
-0.5308 39.4983 -0.4128 0.08 0.03 2.08 -0.96 -9.71 -0.30 0.00 23.34 -0.02 0.86 -10.95 -0.07 2.17 -9.46 0.23 -0.00 23.76 -0.05 -2.55 -10.43 -0.82 0.01 6.07 0.10 0.00 0.00 0.00 10.99 -11.65 -7.68 -0.00 -10.60 0.81 -20.70 2.94 -25.22 0.00 0.00 0.00 -10.34 -10.08 3.23 0.00 -9.97 -0.93 13.54 0.68 0.91 0.00 0.00 0.00 -0.18 -8.97 0.21 
-0.5330 39.4977 -0.4145 0.07 0.03 2.08 -0.95 -9.73 -0.30 -0.00 23.37 -0.01 0.85 -10.97 -0.08 2.18 -9.46 0.23 0.00 23.77 -0.05 -2.56 -10.43 -0.83 -0.00 6.07 0.10 0.00 0.00 0.00 10.95 -11.62 -7.72 0.00 -10.60 0.86 -20.79 2.93 -25.43 0.00 0.00 0.00 -10.38 -10.04 3.24 0.00 -9.96 -0.93 13.54 0.64 0.90 0.00 0.00 0.00 -0.22 -8.98 0.21 
-0.5331 39.4964 -0.4134 0.07 0.03 2.09 -0.95 -9.74 -0.29 0.00 23.40 0.00 0.85 -10.98 -0.11 2.18 -9.47 0.25 0.00 23.78 -0.04 -2.56 -10.44 -0.86 -0.00 6.09 0.11 0.00 0.00 0.00 10.93 -11.55 -7.75 0.00 -10.59 0.90 -20.87 2.87 -25.62 0.00 0.00 0.00 -10.40 -9.96 3.27 0.00 -9.93 -0.93 13.51 0.56 0.89 0.00 0.00 0.00 -0.24 -8.93 0.22 
-0.5347 39.4945 -0.3985 0.07 0.03 2.09 -0.94 -9.74 -0.28 0.00 23.45 0.02 0.84 -11.03 -0.14 2.19 -9.45 0.26 0.00 23.81 -0.03 -2.56 -10.48 -0.89 0.00 6.10 0.12 0.00 0.00 0.00 10.93 -11.45 -7.73 -0.00 -10.56 0.97 -20.96 2.80 -25.83 0.00 0.00 0.00 -10.39 -9.85 3.30 0.00 -9.91 -0.93 13.46 0.46 0.88 0.00 0.00 0.00 -0.23 -8.85 0.24 
-0.5388 39.4912 -0.3625 0.07 0.03 2.11 -0.93 -9.71 -0.26 0.00 23.52 0.04 0.83 -11.12 -0.20 2.21 -9.41 0.29 0.00 23.85 -0.02 -2.57 -10.56 -0.95 0.00 6.12 0.14 0.00 0.00 0.00 10.94 -11.37 -7.69 0.00 -10.58 1.02 -21.05 2.80 -25.99 0.00 0.00 0.00 -10.37 -9.78 3.33 -0.00 -9.92 -0.93 13.41 0.44 0.86 0.00 0.00 0.00 -0.22 -8.80 0.26 
-0.5660 39.4861 -0.3086 0.07 0.03 2.13 -0.88 -9.66 -0.24 0.00 23.60 0.06 0.78 -11.26 -0.27 2.26 -9.34 0.31 -0.00 23.90 -0.01 -2.63 -10.68 -1.02 0.00 6.14 0.17 0.00 0.00 0.00 11.01 -11.28 -7.61 -0.00 -10.53 1.08 -21.17 2.74 -26.16 0.00 0.00 0.00 -10.33 -9.69 3.37 0.00 -9.90 -0.93 13.34 0.39 0.85 0.00 0.00 0.00 -0.14 -8.72 0.28 
-0.6014 39.4771 -0.1872 0.09 0.03 2.15 -0.82 -9.54 -0.21 0.00 23.75 0.08 0.71 -11.54 -0.36 2.32 -9.22 0.35 0.00 24.08 -0.02 -2.70 -10.97 -1.10 0.02 6.16 0.21 0.00 0.00 0.00 11.02 -11.16 -7.55 -0.00 -10.48 1.11 -21.24 2.66 -26.32 0.00 0.00 0.00 -10.48 -9.54 3.55 -0.00 -9.82 -0.72 13.44 0.17 0.55 0.00 0.00 0.00 -0.05 -8.60 0.32 
-0.6451 39.4582 0.0117 0.13 0.03 2.20 -0.75 -9.31 -0.12 0.00 23.96 0.15 0.60 -11.97 -0.58 2.40 -9.02 0.46 0.00 24.38 -0.01 -2.79 -11.46 -1.31 0.01 6.19 0.33 0.00 0.00 0.00 11.01 -11.09 -7.32 0.00 -10.52 1.18 -21.35 2.80 -26.66 0.00 0.00 0.00 -10.64 -9.45 3.93 0.00 -9.81 -0.52 13.58 0.08 0.02 0.00 0.00 0.00 0.03 -8.47 0.52 
-0.7371 39.4303 0.1515 0.20 -0.03 2.33 -0.60 -9.17 0.12 0.00 24.24 0.34 0.39 -12.33 -1.18 2.57 -8.93 0.73 -0.00 24.81 0.09 -2.99 -11.90 -1.89 -0.02 6.12 0.64 0.00 0.00 0.00 10.99 -11.06 -6.94 0.00 -10.57 1.17 -21.54 3.16 -27.23 0.00 0.00 0.00 -10.93 -9.45 4.49 -0.00 -9.75 -0.36 13.85 0.20 -0.66 0.00 0.00 0.00 0.05 -8.41 0.92 
-0.8102 39.4001 0.1256 0.28 -0.16 2.54 -0.47 -9.27 0.46 0.00 24.55 0.55 0.22 -12.41 -1.97 2.72 -9.08 1.12 -0.00 25.34 0.17 -3.13 -12.11 -2.62 -0.08 6.00 1.02 0.00 0.00 0.00 10.86 -10.99 -6.85 0.00 -10.68 0.97 -21.65 3.45 -27.48 0.00 0.00 0.00 -11.41 -9.47 5.18 -0.00 -9.94 -0.03 14.35 0.74 -1.31 0.00 0.00 0.00 -0.14 -8.32 1.09 
-0.8796 39.3715 0.0809 0.37 -0.37 2.82 -0.35 -9.39 0.80 -0.00 24.99 0.70 0.07 -12.51 -2.78 2.87 -9.22 1.52 -0.00 25.97 0.18 -3.25 -12.36 -3.36 -0.15 5.85 1.41 0.00 0.00 0.00 10.84 -10.78 -7.04 -0.00 -10.80 0.64 -21.82 3.55 -27.45 0.00 0.00 0.00 -12.08 -9.66 6.77 -0.00 -11.08 1.21 15.03 2.00 -3.16 0.00 0.00 0.00 -0.41 -8.23 1.14 
-0.9096 39.3351 0.0388 0.46 -0.64 3.14 -0.30 -9.50 1.04 -0.00 25.51 0.74 0.02 -12.65 -3.39 2.94 -9.31 1.83 -0.00 26.65 0.04 -3.26 -12.66 -3.90 -0.22 5.75 1.70 0.00 0.00 0.00 10.82 -10.34 -7.55 0.00 -10.90 0.35 -21.92 3.33 -27.23 0.00 0.00 0.00 -12.95 -10.06 9.16 -0.00 -13.07 2.92 15.94 3.68 -5.68 0.00 0.00 0.00 -0.72 -7.90 0.98 
-0.9056 39.2973 -0.0045 0.54 -0.95 3.47 -0.32 -9.53 1.16 -0.00 25.98 0.69 0.04 -12.77 -3.77 2.95 -9.30 2.00 -0.00 27.23 -0.20 -3.20 -12.92 -4.16 -0.29 5.73 1.87 0.00 0.00 0.00 10.91 -9.58 -8.24 0.00 -11.05 0.15 -22.05 2.84 -26.96 0.00 0.00 0.00 -14.09 -10.98 12.36 -0.00 -16.27 4.92 17.14 5.91 -8.92 0.00 0.00 0.00 -1.03 -7.24 0.66 
-0.8893 39.2624 -0.1087 0.59 -1.29 3.77 -0.37 -9.73 1.15 0.00 26.63 0.63 0.10 -12.88 -3.99 2.91 -9.43 1.99 -0.00 27.89 -0.56 -3.07 -13.14 -4.10 -0.36 5.85 1.97 0.00 0.00 0.00 11.30 -8.46 -8.95 0.00 -11.39 -0.02 -22.41 2.13 -26.97 0.00 0.00 0.00 -15.41 -13.09 16.15 0.00 -22.15 6.78 18.87 9.90 -13.29 0.00 0.00 0.00 -1.03 -6.18 0.44 
